<svg xmlns="http://www.w3.org/2000/svg" xmlns:xlink="http://www.w3.org/1999/xlink" width="1655.433" height="595.276" viewBox="0 0 1655.433 595.276"><svg x="-3.386" y="-0.001" width="1662.21" height="595.276" viewBox="0 0 1662.21 595.276" overflow="visible"><defs><clipPath id="c0"><path d="M 0 0 L 1662.21 0 L 1662.21 595.276 L 0 595.276 Z"/></clipPath><clipPath id="c1"><path d="M 1077.515 581.103 L 1644.444 581.103 L 1644.444 14.174 L 1077.515 14.174 Z"/></clipPath></defs><path d="M 50.474 308.621 L 69.122 263.352 L 87.77 308.621 Z M 77.114 245.69 L 61.574 245.69 L 17.766 349.586 L 33.898 349.586 L 45.146 322.276 L 93.247 322.276 L 104.495 349.586 L 121.071 349.586 Z" fill="#070809"/><path d="M 140.633 349.586 L 156.172 349.586 L 200.129 245.69 L 183.701 245.69 L 148.772 330.885 L 113.845 245.69 L 96.824 245.69 Z" fill="#070809"/><path d="M 208.593 308.621 L 227.241 263.352 L 245.888 308.621 Z M 235.233 245.69 L 219.693 245.69 L 175.883 349.586 L 192.017 349.586 L 203.265 322.276 L 251.365 322.276 L 262.612 349.586 L 279.189 349.586 Z" fill="#070809"/><path d="M 302.186 245.69 L 286.645 245.69 L 286.645 349.586 L 302.186 349.586 Z" fill="#070809"/><path d="M 380.765 335.932 L 333.404 335.932 L 333.404 245.69 L 317.864 245.69 L 317.864 349.586 L 380.765 349.586 Z" fill="#070809"/><path d="M 418.019 308.621 L 436.667 263.352 L 455.316 308.621 Z M 444.659 245.69 L 429.119 245.69 L 385.311 349.586 L 401.443 349.586 L 412.691 322.276 L 460.791 322.276 L 472.038 349.586 L 488.615 349.586 Z" fill="#070809"/><path d="M 537.514 336.376 L 511.465 336.376 L 511.465 302.238 L 537.514 302.238 C 542.644 302.238 546.837 303.872 550.094 307.137 C 553.447 310.401 555.126 314.408 555.126 319.159 C 555.126 324.007 553.447 328.113 550.094 331.477 C 546.837 334.744 542.644 336.376 537.514 336.376 M 532.628 258.899 C 537.168 258.899 540.867 260.383 543.73 263.351 C 546.689 266.321 548.169 269.932 548.169 274.188 C 548.169 278.344 546.689 281.904 543.73 284.873 C 540.867 287.842 537.168 289.326 532.628 289.326 L 511.465 289.326 L 511.465 258.899 Z M 495.924 349.586 L 539.734 349.586 C 541.903 349.586 544.024 349.388 546.098 348.991 C 548.169 348.596 550.142 348.052 552.017 347.359 C 553.892 346.568 555.619 345.677 557.197 344.687 C 558.874 343.6 560.404 342.412 561.785 341.124 C 563.265 339.741 564.549 338.256 565.633 336.672 C 566.718 335.09 567.656 333.408 568.445 331.626 C 569.234 329.845 569.827 328.015 570.222 326.134 C 570.616 324.254 570.813 322.275 570.813 320.198 C 570.813 314.26 568.988 308.917 565.338 304.168 C 561.686 299.418 556.951 296.005 551.13 293.927 C 554.978 291.652 558.036 288.684 560.306 285.023 C 562.674 281.262 563.858 277.254 563.858 273 C 563.858 271.12 563.659 269.289 563.265 267.509 C 562.87 265.628 562.279 263.896 561.49 262.314 C 560.799 260.632 559.911 259.098 558.826 257.712 C 557.74 256.228 556.506 254.892 555.126 253.704 C 553.842 252.419 552.412 251.281 550.833 250.292 C 549.255 249.302 547.528 248.461 545.653 247.768 C 543.878 247.075 542.003 246.581 540.03 246.284 C 538.055 245.888 535.984 245.69 533.812 245.69 L 495.924 245.69 Z" fill="#070809"/><path d="M 644.824 335.932 L 597.465 335.932 L 597.465 245.69 L 581.925 245.69 L 581.925 349.586 L 644.824 349.586 Z" fill="#070809"/><path d="M 656.504 349.586 L 719.404 349.586 L 719.404 335.932 L 672.043 335.932 L 672.043 304.169 L 717.923 304.169 L 717.923 290.662 L 672.043 290.662 L 672.043 259.344 L 719.404 259.344 L 719.404 245.69 L 656.504 245.69 Z" fill="#070809"/><path d="M 775.174 297.638 C 775.174 295.165 775.37 292.789 775.765 290.514 C 776.16 288.237 776.752 286.012 777.542 283.835 C 778.331 281.658 779.268 279.63 780.353 277.749 C 781.538 275.77 782.82 273.94 784.202 272.258 C 785.683 270.477 787.261 268.893 788.938 267.509 C 790.614 266.023 792.391 264.738 794.266 263.65 C 796.239 262.462 798.263 261.473 800.334 260.68 C 802.505 259.791 804.725 259.148 806.994 258.751 C 809.264 258.355 811.582 258.159 813.949 258.159 C 816.317 258.159 818.637 258.355 820.906 258.751 C 823.176 259.148 825.345 259.791 827.419 260.68 C 829.588 261.473 831.611 262.462 833.486 263.65 C 835.459 264.738 837.284 266.023 838.963 267.509 C 840.64 268.893 842.168 270.477 843.55 272.258 C 845.03 273.94 846.312 275.77 847.398 277.749 C 848.582 279.63 849.57 281.658 850.359 283.835 C 851.148 286.012 851.738 288.237 852.134 290.514 C 852.528 292.789 852.727 295.165 852.727 297.638 C 852.727 300.111 852.528 302.537 852.134 304.91 C 851.738 307.187 851.148 309.412 850.359 311.589 C 849.57 313.766 848.582 315.845 847.398 317.823 C 846.312 319.704 845.03 321.534 843.55 323.315 C 842.168 324.997 840.64 326.581 838.963 328.065 C 837.284 329.449 835.459 330.737 833.486 331.924 C 831.611 333.012 829.588 333.951 827.419 334.744 C 825.345 335.535 823.176 336.128 820.906 336.525 C 818.637 336.921 816.317 337.117 813.949 337.117 C 811.582 337.117 809.264 336.921 806.994 336.525 C 804.725 336.128 802.505 335.535 800.334 334.744 C 798.263 333.951 796.239 333.012 794.266 331.924 C 792.391 330.737 790.614 329.449 788.938 328.065 C 787.261 326.581 785.683 324.997 784.202 323.315 C 782.82 321.534 781.538 319.704 780.353 317.823 C 779.268 315.845 778.331 313.766 777.542 311.589 C 776.752 309.412 776.16 307.187 775.765 304.91 C 775.37 302.537 775.174 300.111 775.174 297.638 M 759.337 297.638 C 759.337 300.606 759.535 303.526 759.93 306.396 C 760.423 309.264 761.114 312.035 762.001 314.707 C 762.989 317.379 764.123 319.95 765.406 322.424 C 766.689 324.899 768.119 327.272 769.697 329.549 C 771.376 331.726 773.201 333.803 775.174 335.782 C 777.147 337.662 779.268 339.443 781.538 341.125 C 783.808 342.709 786.175 344.143 788.641 345.431 C 791.108 346.716 793.723 347.804 796.486 348.695 C 799.248 349.586 802.061 350.229 804.921 350.624 C 807.882 351.118 810.891 351.367 813.949 351.367 C 817.007 351.367 819.969 351.118 822.829 350.624 C 825.79 350.229 828.602 349.586 831.267 348.695 C 834.029 347.804 836.643 346.716 839.111 345.431 C 841.675 344.143 844.043 342.709 846.214 341.125 C 848.484 339.443 850.605 337.662 852.578 335.782 C 854.552 333.803 856.328 331.726 857.907 329.549 C 859.583 327.272 861.064 324.899 862.346 322.424 C 863.63 319.95 864.714 317.379 865.603 314.707 C 866.588 312.035 867.28 309.264 867.674 306.396 C 868.167 303.526 868.415 300.606 868.415 297.638 C 868.415 294.67 868.167 291.75 867.674 288.88 C 867.28 286.012 866.588 283.241 865.603 280.569 C 864.714 277.897 863.63 275.326 862.346 272.852 C 861.064 270.377 859.583 268.052 857.907 265.875 C 856.328 263.6 854.552 261.521 852.578 259.643 C 850.605 257.664 848.484 255.882 846.214 254.299 C 844.043 252.617 841.675 251.133 839.111 249.845 C 836.643 248.56 834.029 247.472 831.267 246.581 C 828.602 245.69 825.79 245.047 822.829 244.652 C 819.969 244.158 817.007 243.909 813.949 243.909 C 810.891 243.909 807.882 244.158 804.921 244.652 C 802.061 245.047 799.248 245.69 796.486 246.581 C 793.723 247.472 791.108 248.56 788.641 249.845 C 786.175 251.133 783.808 252.617 781.538 254.299 C 779.268 255.882 777.147 257.664 775.174 259.643 C 773.201 261.521 771.376 263.6 769.697 265.875 C 768.119 268.052 766.689 270.377 765.406 272.852 C 764.123 275.326 762.989 277.897 762.001 280.569 C 761.114 283.241 760.423 286.012 759.93 288.88 C 759.535 291.75 759.337 294.67 759.337 297.638" fill="#070809"/><path d="M 895.614 349.586 L 895.466 267.211 L 952.891 349.586 L 970.058 349.586 L 970.058 245.69 L 955.553 245.69 L 955.701 327.917 L 898.13 245.69 L 880.961 245.69 L 880.961 349.586 Z" fill="#070809"/><path d="M 1077.515 225.827 C 1077.515 151.741 1077.515 114.698 1091.933 86.401 C 1104.615 61.511 1124.852 41.274 1149.743 28.591 C 1178.039 14.173 1215.082 14.173 1289.169 14.173 L 1432.791 14.173 C 1506.877 14.173 1543.92 14.173 1572.216 28.591 C 1597.107 41.274 1617.343 61.511 1630.026 86.401 C 1644.444 114.698 1644.444 151.741 1644.444 225.827 L 1644.444 369.449 C 1644.444 443.535 1644.444 480.578 1630.026 508.875 C 1617.343 533.766 1597.107 554.001 1572.216 566.685 C 1543.92 581.103 1506.877 581.103 1432.791 581.103 L 1289.169 581.103 C 1215.082 581.103 1178.039 581.103 1149.743 566.685 C 1124.852 554.001 1104.615 533.766 1091.933 508.875 C 1077.515 480.578 1077.515 443.535 1077.515 369.449 Z" fill="#070809" clip-path="url(#c1)"/><path d="M 1201.59 353.054 C 1222.159 353.054 1238.061 337.189 1238.061 313.713 L 1238.061 222.342 L 1260.323 222.342 L 1260.323 370.397 L 1238.274 370.397 L 1238.274 356.648 C 1228.308 367.011 1214.526 372.934 1199.044 372.934 C 1167.233 372.934 1142.846 349.881 1142.846 314.996 L 1142.846 222.366 L 1165.108 222.366 L 1165.108 313.713 C 1165.108 337.612 1180.799 353.054 1201.583 353.054" fill="#ffffff" clip-path="url(#c1)"/><path d="M 1335.185 354.112 C 1355.544 354.112 1372.297 337.401 1372.297 316.676 C 1372.297 295.735 1355.544 279.238 1335.185 279.238 C 1314.614 279.238 1297.862 295.735 1297.862 316.676 C 1297.862 337.401 1314.401 354.112 1335.185 354.112 M 1276.869 222.345 L 1298.286 222.345 L 1298.286 276.28 C 1303.281 271.175 1309.251 267.124 1315.845 264.363 C 1322.436 261.601 1329.518 260.187 1336.667 260.202 C 1368.478 260.202 1393.499 285.373 1393.499 316.676 C 1393.499 347.766 1368.478 372.934 1336.667 372.934 C 1329.482 372.952 1322.366 371.54 1315.737 368.78 C 1309.106 366.021 1303.096 361.967 1298.057 356.86 L 1298.057 370.39 L 1276.838 370.39 Z" fill="#ffffff" clip-path="url(#c1)"/><path d="M 1424.044 306.527 L 1489.995 306.527 C 1486.391 290.027 1473.031 279.029 1457.128 279.029 C 1441.224 279.029 1427.864 290.027 1424.044 306.527 M 1457.548 260.417 C 1488.718 260.417 1511.625 284.317 1511.625 316.467 L 1511.625 323.446 L 1423.631 323.446 C 1426.601 341 1441.231 354.116 1459.459 354.116 C 1471.981 354.116 1482.577 349.036 1490.632 338.249 L 1506.115 349.671 C 1495.297 364.054 1479.181 372.724 1459.459 372.724 C 1427.014 372.724 1401.991 348.613 1401.991 316.467 C 1401.991 286.01 1425.954 260.417 1457.552 260.417 Z" fill="#ffffff" clip-path="url(#c1)"/><path d="M 1569.091 281.569 C 1555.094 281.569 1544.915 292.355 1544.915 309.061 L 1544.915 370.399 L 1523.494 370.399 L 1523.494 262.532 L 1544.713 262.532 L 1544.713 275.868 C 1550.014 267.196 1558.71 261.697 1570.586 261.697 L 1578.006 261.697 L 1578.006 281.578 Z" fill="#ffffff" clip-path="url(#c1)"/></svg></svg>
